<mxfile host="drawio-plugin" modified="2023-09-11T10:56:03.129Z" agent="5.0 (Windows NT 10.0; Win64; x64) AppleWebKit/537.36 (KHTML, like Gecko) Chrome/111.0.0.0 Safari/537.36" etag="k9aOaunDg0JVOvqS5l-b" version="20.5.3" type="embed" pages="3"><diagram id="duLIq42Rx5AsYEdSV9Jk" name="Quiz"><mxGraphModel dx="771" dy="699" grid="1" gridSize="10" guides="1" tooltips="1" connect="1" arrows="1" fold="1" page="1" pageScale="1" pageWidth="827" pageHeight="1169" math="0" shadow="0"><root><mxCell id="0"/><mxCell id="1" parent="0"/><mxCell id="VQdse6aXJuE9har1bsIT-27" style="edgeStyle=orthogonalEdgeStyle;rounded=0;orthogonalLoop=1;jettySize=auto;html=1;exitX=0.5;exitY=1;exitDx=0;exitDy=0;entryX=0.5;entryY=0;entryDx=0;entryDy=0;endArrow=none;endFill=0;" parent="1" source="VQdse6aXJuE9har1bsIT-1" target="VQdse6aXJuE9har1bsIT-5" edge="1"><mxGeometry relative="1" as="geometry"/></mxCell><mxCell id="VQdse6aXJuE9har1bsIT-1" value="Quiz" style="swimlane;fontStyle=1;align=center;verticalAlign=top;childLayout=stackLayout;horizontal=1;startSize=26;horizontalStack=0;resizeParent=1;resizeParentMax=0;resizeLast=0;collapsible=1;marginBottom=0;fillColor=#d5e8d4;strokeColor=#82b366;" parent="1" vertex="1"><mxGeometry x="30" y="152" width="210" height="216" as="geometry"/></mxCell><mxCell id="VQdse6aXJuE9har1bsIT-2" value="# DEFAULT_NAME: String = &quot;Anon&quot;" style="text;strokeColor=none;fillColor=none;align=left;verticalAlign=top;spacingLeft=4;spacingRight=4;overflow=hidden;rotatable=0;points=[[0,0.5],[1,0.5]];portConstraint=eastwest;" parent="VQdse6aXJuE9har1bsIT-1" vertex="1"><mxGeometry y="26" width="210" height="26" as="geometry"/></mxCell><mxCell id="VQdse6aXJuE9har1bsIT-14" value="# inputFilename : String" style="text;strokeColor=none;fillColor=none;align=left;verticalAlign=top;spacingLeft=4;spacingRight=4;overflow=hidden;rotatable=0;points=[[0,0.5],[1,0.5]];portConstraint=eastwest;" parent="VQdse6aXJuE9har1bsIT-1" vertex="1"><mxGeometry y="52" width="210" height="26" as="geometry"/></mxCell><mxCell id="VQdse6aXJuE9har1bsIT-15" value="- maxPossibleScore : int = 0" style="text;strokeColor=none;fillColor=none;align=left;verticalAlign=top;spacingLeft=4;spacingRight=4;overflow=hidden;rotatable=0;points=[[0,0.5],[1,0.5]];portConstraint=eastwest;" parent="VQdse6aXJuE9har1bsIT-1" vertex="1"><mxGeometry y="78" width="210" height="26" as="geometry"/></mxCell><mxCell id="VQdse6aXJuE9har1bsIT-13" value="+ quizQuestions : ArrayList" style="text;strokeColor=none;fillColor=none;align=left;verticalAlign=top;spacingLeft=4;spacingRight=4;overflow=hidden;rotatable=0;points=[[0,0.5],[1,0.5]];portConstraint=eastwest;" parent="VQdse6aXJuE9har1bsIT-1" vertex="1"><mxGeometry y="104" width="210" height="26" as="geometry"/></mxCell><mxCell id="VQdse6aXJuE9har1bsIT-3" value="" style="line;strokeWidth=1;fillColor=none;align=left;verticalAlign=middle;spacingTop=-1;spacingLeft=3;spacingRight=3;rotatable=0;labelPosition=right;points=[];portConstraint=eastwest;" parent="VQdse6aXJuE9har1bsIT-1" vertex="1"><mxGeometry y="130" width="210" height="8" as="geometry"/></mxCell><mxCell id="VQdse6aXJuE9har1bsIT-4" value="&lt;&lt;Create&gt;&gt; Quiz()" style="text;strokeColor=none;fillColor=none;align=left;verticalAlign=top;spacingLeft=4;spacingRight=4;overflow=hidden;rotatable=0;points=[[0,0.5],[1,0.5]];portConstraint=eastwest;" parent="VQdse6aXJuE9har1bsIT-1" vertex="1"><mxGeometry y="138" width="210" height="26" as="geometry"/></mxCell><mxCell id="VQdse6aXJuE9har1bsIT-17" value="+ start () : void" style="text;strokeColor=none;fillColor=none;align=left;verticalAlign=top;spacingLeft=4;spacingRight=4;overflow=hidden;rotatable=0;points=[[0,0.5],[1,0.5]];portConstraint=eastwest;" parent="VQdse6aXJuE9har1bsIT-1" vertex="1"><mxGeometry y="164" width="210" height="26" as="geometry"/></mxCell><mxCell id="VQdse6aXJuE9har1bsIT-18" value="+ askQuestion (Question) : int" style="text;strokeColor=none;fillColor=none;align=left;verticalAlign=top;spacingLeft=4;spacingRight=4;overflow=hidden;rotatable=0;points=[[0,0.5],[1,0.5]];portConstraint=eastwest;" parent="VQdse6aXJuE9har1bsIT-1" vertex="1"><mxGeometry y="190" width="210" height="26" as="geometry"/></mxCell><mxCell id="VQdse6aXJuE9har1bsIT-5" value="FileAccess" style="swimlane;fontStyle=1;align=center;verticalAlign=top;childLayout=stackLayout;horizontal=1;startSize=26;horizontalStack=0;resizeParent=1;resizeParentMax=0;resizeLast=0;collapsible=1;marginBottom=0;" parent="1" vertex="1"><mxGeometry x="10" y="490" width="270" height="86" as="geometry"/></mxCell><mxCell id="VQdse6aXJuE9har1bsIT-7" value="" style="line;strokeWidth=1;fillColor=none;align=left;verticalAlign=middle;spacingTop=-1;spacingLeft=3;spacingRight=3;rotatable=0;labelPosition=right;points=[];portConstraint=eastwest;" parent="VQdse6aXJuE9har1bsIT-5" vertex="1"><mxGeometry y="26" width="270" height="8" as="geometry"/></mxCell><mxCell id="VQdse6aXJuE9har1bsIT-8" value="+ readData(filename: String) : ArrayList" style="text;strokeColor=none;fillColor=none;align=left;verticalAlign=top;spacingLeft=4;spacingRight=4;overflow=hidden;rotatable=0;points=[[0,0.5],[1,0.5]];portConstraint=eastwest;fontStyle=4" parent="VQdse6aXJuE9har1bsIT-5" vertex="1"><mxGeometry y="34" width="270" height="26" as="geometry"/></mxCell><mxCell id="VQdse6aXJuE9har1bsIT-26" value="+ writeData(filename: String, data: String) : void" style="text;strokeColor=none;fillColor=none;align=left;verticalAlign=top;spacingLeft=4;spacingRight=4;overflow=hidden;rotatable=0;points=[[0,0.5],[1,0.5]];portConstraint=eastwest;fontStyle=4" parent="VQdse6aXJuE9har1bsIT-5" vertex="1"><mxGeometry y="60" width="270" height="26" as="geometry"/></mxCell><mxCell id="VQdse6aXJuE9har1bsIT-9" value="Question" style="swimlane;fontStyle=1;align=center;verticalAlign=top;childLayout=stackLayout;horizontal=1;startSize=26;horizontalStack=0;resizeParent=1;resizeParentMax=0;resizeLast=0;collapsible=1;marginBottom=0;" parent="1" vertex="1"><mxGeometry x="380" y="122" width="370" height="294" as="geometry"/></mxCell><mxCell id="VQdse6aXJuE9har1bsIT-10" value="- question : String" style="text;strokeColor=none;fillColor=none;align=left;verticalAlign=top;spacingLeft=4;spacingRight=4;overflow=hidden;rotatable=0;points=[[0,0.5],[1,0.5]];portConstraint=eastwest;" parent="VQdse6aXJuE9har1bsIT-9" vertex="1"><mxGeometry y="26" width="370" height="26" as="geometry"/></mxCell><mxCell id="VQdse6aXJuE9har1bsIT-20" value="- answer : String" style="text;strokeColor=none;fillColor=none;align=left;verticalAlign=top;spacingLeft=4;spacingRight=4;overflow=hidden;rotatable=0;points=[[0,0.5],[1,0.5]];portConstraint=eastwest;" parent="VQdse6aXJuE9har1bsIT-9" vertex="1"><mxGeometry y="52" width="370" height="26" as="geometry"/></mxCell><mxCell id="VQdse6aXJuE9har1bsIT-19" value="- points : int =1" style="text;strokeColor=none;fillColor=none;align=left;verticalAlign=top;spacingLeft=4;spacingRight=4;overflow=hidden;rotatable=0;points=[[0,0.5],[1,0.5]];portConstraint=eastwest;" parent="VQdse6aXJuE9har1bsIT-9" vertex="1"><mxGeometry y="78" width="370" height="26" as="geometry"/></mxCell><mxCell id="VQdse6aXJuE9har1bsIT-11" value="" style="line;strokeWidth=1;fillColor=none;align=left;verticalAlign=middle;spacingTop=-1;spacingLeft=3;spacingRight=3;rotatable=0;labelPosition=right;points=[];portConstraint=eastwest;" parent="VQdse6aXJuE9har1bsIT-9" vertex="1"><mxGeometry y="104" width="370" height="8" as="geometry"/></mxCell><mxCell id="VQdse6aXJuE9har1bsIT-12" value="&lt;&lt;Create&gt;&gt; Question (question: String, answer: String) " style="text;strokeColor=none;fillColor=none;align=left;verticalAlign=top;spacingLeft=4;spacingRight=4;overflow=hidden;rotatable=0;points=[[0,0.5],[1,0.5]];portConstraint=eastwest;" parent="VQdse6aXJuE9har1bsIT-9" vertex="1"><mxGeometry y="112" width="370" height="26" as="geometry"/></mxCell><mxCell id="VQdse6aXJuE9har1bsIT-31" value="&lt;&lt;Create&gt;&gt; Question (question: String, answer: String, points : int) " style="text;strokeColor=none;fillColor=none;align=left;verticalAlign=top;spacingLeft=4;spacingRight=4;overflow=hidden;rotatable=0;points=[[0,0.5],[1,0.5]];portConstraint=eastwest;" parent="VQdse6aXJuE9har1bsIT-9" vertex="1"><mxGeometry y="138" width="370" height="26" as="geometry"/></mxCell><mxCell id="VQdse6aXJuE9har1bsIT-22" value="+ getQuestion () : String" style="text;strokeColor=none;fillColor=none;align=left;verticalAlign=top;spacingLeft=4;spacingRight=4;overflow=hidden;rotatable=0;points=[[0,0.5],[1,0.5]];portConstraint=eastwest;" parent="VQdse6aXJuE9har1bsIT-9" vertex="1"><mxGeometry y="164" width="370" height="26" as="geometry"/></mxCell><mxCell id="VQdse6aXJuE9har1bsIT-23" value="+ getAnswer(): String" style="text;strokeColor=none;fillColor=none;align=left;verticalAlign=top;spacingLeft=4;spacingRight=4;overflow=hidden;rotatable=0;points=[[0,0.5],[1,0.5]];portConstraint=eastwest;" parent="VQdse6aXJuE9har1bsIT-9" vertex="1"><mxGeometry y="190" width="370" height="26" as="geometry"/></mxCell><mxCell id="VQdse6aXJuE9har1bsIT-24" value="+ getPoints () : int" style="text;strokeColor=none;fillColor=none;align=left;verticalAlign=top;spacingLeft=4;spacingRight=4;overflow=hidden;rotatable=0;points=[[0,0.5],[1,0.5]];portConstraint=eastwest;" parent="VQdse6aXJuE9har1bsIT-9" vertex="1"><mxGeometry y="216" width="370" height="26" as="geometry"/></mxCell><mxCell id="VQdse6aXJuE9har1bsIT-25" value="+ isCorrect (userAnswer: String) : boolean" style="text;strokeColor=none;fillColor=none;align=left;verticalAlign=top;spacingLeft=4;spacingRight=4;overflow=hidden;rotatable=0;points=[[0,0.5],[1,0.5]];portConstraint=eastwest;" parent="VQdse6aXJuE9har1bsIT-9" vertex="1"><mxGeometry y="242" width="370" height="26" as="geometry"/></mxCell><mxCell id="MTsyjFuWIduIOb7OvGZQ-23" value="+ toString (): String" style="text;strokeColor=none;fillColor=none;align=left;verticalAlign=top;spacingLeft=4;spacingRight=4;overflow=hidden;rotatable=0;points=[[0,0.5],[1,0.5]];portConstraint=eastwest;" parent="VQdse6aXJuE9har1bsIT-9" vertex="1"><mxGeometry y="268" width="370" height="26" as="geometry"/></mxCell><mxCell id="VQdse6aXJuE9har1bsIT-28" style="edgeStyle=orthogonalEdgeStyle;rounded=0;orthogonalLoop=1;jettySize=auto;html=1;exitX=1;exitY=0.5;exitDx=0;exitDy=0;endArrow=classic;endFill=1;" parent="1" source="VQdse6aXJuE9har1bsIT-13" target="VQdse6aXJuE9har1bsIT-9" edge="1"><mxGeometry relative="1" as="geometry"/></mxCell><mxCell id="MTsyjFuWIduIOb7OvGZQ-24" style="edgeStyle=orthogonalEdgeStyle;rounded=0;orthogonalLoop=1;jettySize=auto;html=1;exitX=0.5;exitY=0;exitDx=0;exitDy=0;endArrow=block;endFill=0;endSize=10;" parent="1" source="MTsyjFuWIduIOb7OvGZQ-1" target="VQdse6aXJuE9har1bsIT-9" edge="1"><mxGeometry relative="1" as="geometry"><Array as="points"><mxPoint x="310" y="620"/><mxPoint x="460" y="620"/></Array></mxGeometry></mxCell><mxCell id="MTsyjFuWIduIOb7OvGZQ-1" value="TrueFalseQuestion" style="swimlane;fontStyle=1;align=center;verticalAlign=top;childLayout=stackLayout;horizontal=1;startSize=26;horizontalStack=0;resizeParent=1;resizeParentMax=0;resizeLast=0;collapsible=1;marginBottom=0;" parent="1" vertex="1"><mxGeometry x="125" y="700" width="370" height="86" as="geometry"/></mxCell><mxCell id="MTsyjFuWIduIOb7OvGZQ-5" value="" style="line;strokeWidth=1;fillColor=none;align=left;verticalAlign=middle;spacingTop=-1;spacingLeft=3;spacingRight=3;rotatable=0;labelPosition=right;points=[];portConstraint=eastwest;" parent="MTsyjFuWIduIOb7OvGZQ-1" vertex="1"><mxGeometry y="26" width="370" height="8" as="geometry"/></mxCell><mxCell id="MTsyjFuWIduIOb7OvGZQ-6" value="&lt;&lt;Create&gt;&gt; TrueFalseQuestion (question: String, answer: Boolean) " style="text;strokeColor=none;fillColor=none;align=left;verticalAlign=top;spacingLeft=4;spacingRight=4;overflow=hidden;rotatable=0;points=[[0,0.5],[1,0.5]];portConstraint=eastwest;" parent="MTsyjFuWIduIOb7OvGZQ-1" vertex="1"><mxGeometry y="34" width="370" height="26" as="geometry"/></mxCell><mxCell id="MTsyjFuWIduIOb7OvGZQ-8" value="+ getQuestion () : String" style="text;strokeColor=none;fillColor=none;align=left;verticalAlign=top;spacingLeft=4;spacingRight=4;overflow=hidden;rotatable=0;points=[[0,0.5],[1,0.5]];portConstraint=eastwest;" parent="MTsyjFuWIduIOb7OvGZQ-1" vertex="1"><mxGeometry y="60" width="370" height="26" as="geometry"/></mxCell><mxCell id="MTsyjFuWIduIOb7OvGZQ-25" style="edgeStyle=orthogonalEdgeStyle;rounded=0;orthogonalLoop=1;jettySize=auto;html=1;exitX=0.5;exitY=0;exitDx=0;exitDy=0;endArrow=block;endFill=0;endSize=10;" parent="1" source="MTsyjFuWIduIOb7OvGZQ-12" target="VQdse6aXJuE9har1bsIT-9" edge="1"><mxGeometry relative="1" as="geometry"/></mxCell><mxCell id="MTsyjFuWIduIOb7OvGZQ-12" value="MultipleChoiceQuestion" style="swimlane;fontStyle=1;align=center;verticalAlign=top;childLayout=stackLayout;horizontal=1;startSize=26;horizontalStack=0;resizeParent=1;resizeParentMax=0;resizeLast=0;collapsible=1;marginBottom=0;" parent="1" vertex="1"><mxGeometry x="330" y="850" width="470" height="190" as="geometry"/></mxCell><mxCell id="MTsyjFuWIduIOb7OvGZQ-13" value="# options : List&lt;String&gt;" style="text;strokeColor=none;fillColor=none;align=left;verticalAlign=top;spacingLeft=4;spacingRight=4;overflow=hidden;rotatable=0;points=[[0,0.5],[1,0.5]];portConstraint=eastwest;" parent="MTsyjFuWIduIOb7OvGZQ-12" vertex="1"><mxGeometry y="26" width="470" height="26" as="geometry"/></mxCell><mxCell id="MTsyjFuWIduIOb7OvGZQ-14" value="- correctIndex : int" style="text;strokeColor=none;fillColor=none;align=left;verticalAlign=top;spacingLeft=4;spacingRight=4;overflow=hidden;rotatable=0;points=[[0,0.5],[1,0.5]];portConstraint=eastwest;" parent="MTsyjFuWIduIOb7OvGZQ-12" vertex="1"><mxGeometry y="52" width="470" height="26" as="geometry"/></mxCell><mxCell id="MTsyjFuWIduIOb7OvGZQ-16" value="" style="line;strokeWidth=1;fillColor=none;align=left;verticalAlign=middle;spacingTop=-1;spacingLeft=3;spacingRight=3;rotatable=0;labelPosition=right;points=[];portConstraint=eastwest;" parent="MTsyjFuWIduIOb7OvGZQ-12" vertex="1"><mxGeometry y="78" width="470" height="8" as="geometry"/></mxCell><mxCell id="MTsyjFuWIduIOb7OvGZQ-18" value="&lt;&lt;Create&gt;&gt; MultipleChoiceQuestion (question: String, answer: String, options : String[], points : int) " style="text;strokeColor=none;fillColor=none;align=left;verticalAlign=top;spacingLeft=4;spacingRight=4;overflow=hidden;rotatable=0;points=[[0,0.5],[1,0.5]];portConstraint=eastwest;" parent="MTsyjFuWIduIOb7OvGZQ-12" vertex="1"><mxGeometry y="86" width="470" height="26" as="geometry"/></mxCell><mxCell id="MTsyjFuWIduIOb7OvGZQ-19" value="+ getQuestion () : String" style="text;strokeColor=none;fillColor=none;align=left;verticalAlign=top;spacingLeft=4;spacingRight=4;overflow=hidden;rotatable=0;points=[[0,0.5],[1,0.5]];portConstraint=eastwest;" parent="MTsyjFuWIduIOb7OvGZQ-12" vertex="1"><mxGeometry y="112" width="470" height="26" as="geometry"/></mxCell><mxCell id="MTsyjFuWIduIOb7OvGZQ-26" value="+ toString (): String" style="text;strokeColor=none;fillColor=none;align=left;verticalAlign=top;spacingLeft=4;spacingRight=4;overflow=hidden;rotatable=0;points=[[0,0.5],[1,0.5]];portConstraint=eastwest;" parent="MTsyjFuWIduIOb7OvGZQ-12" vertex="1"><mxGeometry y="138" width="470" height="26" as="geometry"/></mxCell><mxCell id="MTsyjFuWIduIOb7OvGZQ-22" value="+ isCorrect (userAnswer: String) : boolean" style="text;strokeColor=none;fillColor=none;align=left;verticalAlign=top;spacingLeft=4;spacingRight=4;overflow=hidden;rotatable=0;points=[[0,0.5],[1,0.5]];portConstraint=eastwest;" parent="MTsyjFuWIduIOb7OvGZQ-12" vertex="1"><mxGeometry y="164" width="470" height="26" as="geometry"/></mxCell><mxCell id="MTsyjFuWIduIOb7OvGZQ-35" value="*" style="text;html=1;strokeColor=none;fillColor=none;align=center;verticalAlign=middle;whiteSpace=wrap;rounded=0;" parent="1" vertex="1"><mxGeometry x="326" y="235.5" width="40" height="20" as="geometry"/></mxCell><mxCell id="MTsyjFuWIduIOb7OvGZQ-36" value="*" style="text;html=1;strokeColor=none;fillColor=none;align=center;verticalAlign=middle;whiteSpace=wrap;rounded=0;" parent="1" vertex="1"><mxGeometry x="240" y="272" width="40" height="20" as="geometry"/></mxCell><mxCell id="MTsyjFuWIduIOb7OvGZQ-37" value="can be used" style="text;html=1;strokeColor=none;fillColor=none;align=center;verticalAlign=middle;whiteSpace=wrap;rounded=0;" parent="1" vertex="1"><mxGeometry x="250" y="241" width="40" height="20" as="geometry"/></mxCell><mxCell id="MTsyjFuWIduIOb7OvGZQ-38" value="contains" style="text;html=1;strokeColor=none;fillColor=none;align=center;verticalAlign=middle;whiteSpace=wrap;rounded=0;" parent="1" vertex="1"><mxGeometry x="330" y="272" width="40" height="20" as="geometry"/></mxCell><mxCell id="MTsyjFuWIduIOb7OvGZQ-39" value="1" style="text;html=1;strokeColor=none;fillColor=none;align=center;verticalAlign=middle;whiteSpace=wrap;rounded=0;" parent="1" vertex="1"><mxGeometry x="240" y="460" width="40" height="20" as="geometry"/></mxCell><mxCell id="MTsyjFuWIduIOb7OvGZQ-40" value="*" style="text;html=1;strokeColor=none;fillColor=none;align=center;verticalAlign=middle;whiteSpace=wrap;rounded=0;" parent="1" vertex="1"><mxGeometry x="200" y="359" width="40" height="20" as="geometry"/></mxCell><mxCell id="vm7HZ5pWed6nC2Jhg_ce-1" value="&lt;h1&gt;Quiz&lt;/h1&gt;&lt;div&gt;The code when the second quiz tutorial has been completed should include the classes, attributes and methods shown here.&lt;/div&gt;&lt;div&gt;The FileAccess class is not mentioned in the document so how the data from a csv file is loaded in may/will differ in your code.&lt;/div&gt;" style="text;html=1;strokeColor=none;fillColor=none;spacing=5;spacingTop=-20;whiteSpace=wrap;overflow=hidden;rounded=0;" parent="1" vertex="1"><mxGeometry x="22.5" y="10" width="475" height="120" as="geometry"/></mxCell></root></mxGraphModel></diagram><diagram id="gwPIjeohYx2GAbvQp8mQ" name="Household"><mxGraphModel dx="1598" dy="699" grid="1" gridSize="10" guides="1" tooltips="1" connect="1" arrows="1" fold="1" page="1" pageScale="1" pageWidth="827" pageHeight="1169" math="0" shadow="0"><root><mxCell id="yh7My2_I7LnDcp3Apb6W-0"/><mxCell id="yh7My2_I7LnDcp3Apb6W-1" parent="yh7My2_I7LnDcp3Apb6W-0"/><mxCell id="yh7My2_I7LnDcp3Apb6W-2" value="Person" style="swimlane;fontStyle=1;align=center;verticalAlign=top;childLayout=stackLayout;horizontal=1;startSize=26;horizontalStack=0;resizeParent=1;resizeParentMax=0;resizeLast=0;collapsible=1;marginBottom=0;" parent="yh7My2_I7LnDcp3Apb6W-1" vertex="1"><mxGeometry x="20" y="240" width="540" height="216" as="geometry"/></mxCell><mxCell id="yh7My2_I7LnDcp3Apb6W-7" value="-age : int" style="text;strokeColor=none;fillColor=none;align=left;verticalAlign=top;spacingLeft=4;spacingRight=4;overflow=hidden;rotatable=0;points=[[0,0.5],[1,0.5]];portConstraint=eastwest;" parent="yh7My2_I7LnDcp3Apb6W-2" vertex="1"><mxGeometry y="26" width="540" height="26" as="geometry"/></mxCell><mxCell id="yh7My2_I7LnDcp3Apb6W-6" value="-height: double" style="text;strokeColor=none;fillColor=none;align=left;verticalAlign=top;spacingLeft=4;spacingRight=4;overflow=hidden;rotatable=0;points=[[0,0.5],[1,0.5]];portConstraint=eastwest;" parent="yh7My2_I7LnDcp3Apb6W-2" vertex="1"><mxGeometry y="52" width="540" height="26" as="geometry"/></mxCell><mxCell id="yh7My2_I7LnDcp3Apb6W-25" value="-gender: String" style="text;strokeColor=none;fillColor=none;align=left;verticalAlign=top;spacingLeft=4;spacingRight=4;overflow=hidden;rotatable=0;points=[[0,0.5],[1,0.5]];portConstraint=eastwest;" parent="yh7My2_I7LnDcp3Apb6W-2" vertex="1"><mxGeometry y="78" width="540" height="26" as="geometry"/></mxCell><mxCell id="yh7My2_I7LnDcp3Apb6W-26" value="-firstName: String" style="text;strokeColor=none;fillColor=none;align=left;verticalAlign=top;spacingLeft=4;spacingRight=4;overflow=hidden;rotatable=0;points=[[0,0.5],[1,0.5]];portConstraint=eastwest;" parent="yh7My2_I7LnDcp3Apb6W-2" vertex="1"><mxGeometry y="104" width="540" height="26" as="geometry"/></mxCell><mxCell id="yh7My2_I7LnDcp3Apb6W-3" value="-surname : String" style="text;strokeColor=none;fillColor=none;align=left;verticalAlign=top;spacingLeft=4;spacingRight=4;overflow=hidden;rotatable=0;points=[[0,0.5],[1,0.5]];portConstraint=eastwest;" parent="yh7My2_I7LnDcp3Apb6W-2" vertex="1"><mxGeometry y="130" width="540" height="26" as="geometry"/></mxCell><mxCell id="yh7My2_I7LnDcp3Apb6W-4" value="" style="line;strokeWidth=1;fillColor=none;align=left;verticalAlign=middle;spacingTop=-1;spacingLeft=3;spacingRight=3;rotatable=0;labelPosition=right;points=[];portConstraint=eastwest;" parent="yh7My2_I7LnDcp3Apb6W-2" vertex="1"><mxGeometry y="156" width="540" height="8" as="geometry"/></mxCell><mxCell id="yh7My2_I7LnDcp3Apb6W-5" value="&lt;&lt;Create&gt;&gt;Human(firstName: String, surname: String, age:int, height: double, weight: double) " style="text;strokeColor=none;fillColor=none;align=left;verticalAlign=top;spacingLeft=4;spacingRight=4;overflow=hidden;rotatable=0;points=[[0,0.5],[1,0.5]];portConstraint=eastwest;" parent="yh7My2_I7LnDcp3Apb6W-2" vertex="1"><mxGeometry y="164" width="540" height="26" as="geometry"/></mxCell><mxCell id="yh7My2_I7LnDcp3Apb6W-27" value="&lt;&lt;Create&gt;&gt;Human(firstName: String, surname: String) " style="text;strokeColor=none;fillColor=none;align=left;verticalAlign=top;spacingLeft=4;spacingRight=4;overflow=hidden;rotatable=0;points=[[0,0.5],[1,0.5]];portConstraint=eastwest;" parent="yh7My2_I7LnDcp3Apb6W-2" vertex="1"><mxGeometry y="190" width="540" height="26" as="geometry"/></mxCell><mxCell id="yh7My2_I7LnDcp3Apb6W-34" style="edgeStyle=orthogonalEdgeStyle;rounded=0;orthogonalLoop=1;jettySize=auto;html=1;exitX=0.5;exitY=0;exitDx=0;exitDy=0;endArrow=block;endFill=0;endSize=10;" parent="yh7My2_I7LnDcp3Apb6W-1" source="yh7My2_I7LnDcp3Apb6W-8" target="yh7My2_I7LnDcp3Apb6W-2" edge="1"><mxGeometry relative="1" as="geometry"/></mxCell><mxCell id="yh7My2_I7LnDcp3Apb6W-52" style="edgeStyle=orthogonalEdgeStyle;rounded=0;orthogonalLoop=1;jettySize=auto;html=1;exitX=0.25;exitY=0;exitDx=0;exitDy=0;startArrow=classic;startFill=1;endArrow=none;endFill=0;endSize=10;" parent="yh7My2_I7LnDcp3Apb6W-1" source="yh7My2_I7LnDcp3Apb6W-8" target="yh7My2_I7LnDcp3Apb6W-14" edge="1"><mxGeometry relative="1" as="geometry"/></mxCell><mxCell id="yh7My2_I7LnDcp3Apb6W-8" value="Adult" style="swimlane;fontStyle=1;align=center;verticalAlign=top;childLayout=stackLayout;horizontal=1;startSize=26;horizontalStack=0;resizeParent=1;resizeParentMax=0;resizeLast=0;collapsible=1;marginBottom=0;" parent="yh7My2_I7LnDcp3Apb6W-1" vertex="1"><mxGeometry x="-140" y="640" width="340" height="164" as="geometry"/></mxCell><mxCell id="yh7My2_I7LnDcp3Apb6W-9" value="- children : ArrayList &lt;Child&gt;" style="text;strokeColor=none;fillColor=none;align=left;verticalAlign=top;spacingLeft=4;spacingRight=4;overflow=hidden;rotatable=0;points=[[0,0.5],[1,0.5]];portConstraint=eastwest;" parent="yh7My2_I7LnDcp3Apb6W-8" vertex="1"><mxGeometry y="26" width="340" height="26" as="geometry"/></mxCell><mxCell id="yh7My2_I7LnDcp3Apb6W-10" value="- employed: Boolean" style="text;strokeColor=none;fillColor=none;align=left;verticalAlign=top;spacingLeft=4;spacingRight=4;overflow=hidden;rotatable=0;points=[[0,0.5],[1,0.5]];portConstraint=eastwest;" parent="yh7My2_I7LnDcp3Apb6W-8" vertex="1"><mxGeometry y="52" width="340" height="26" as="geometry"/></mxCell><mxCell id="yh7My2_I7LnDcp3Apb6W-11" value="- job : String" style="text;strokeColor=none;fillColor=none;align=left;verticalAlign=top;spacingLeft=4;spacingRight=4;overflow=hidden;rotatable=0;points=[[0,0.5],[1,0.5]];portConstraint=eastwest;" parent="yh7My2_I7LnDcp3Apb6W-8" vertex="1"><mxGeometry y="78" width="340" height="26" as="geometry"/></mxCell><mxCell id="yh7My2_I7LnDcp3Apb6W-12" value="" style="line;strokeWidth=1;fillColor=none;align=left;verticalAlign=middle;spacingTop=-1;spacingLeft=3;spacingRight=3;rotatable=0;labelPosition=right;points=[];portConstraint=eastwest;" parent="yh7My2_I7LnDcp3Apb6W-8" vertex="1"><mxGeometry y="104" width="340" height="8" as="geometry"/></mxCell><mxCell id="yh7My2_I7LnDcp3Apb6W-39" value="&lt;&lt;Create&gt;&gt;Adult(firstName: String, surname: String) " style="text;strokeColor=none;fillColor=none;align=left;verticalAlign=top;spacingLeft=4;spacingRight=4;overflow=hidden;rotatable=0;points=[[0,0.5],[1,0.5]];portConstraint=eastwest;" parent="yh7My2_I7LnDcp3Apb6W-8" vertex="1"><mxGeometry y="112" width="340" height="26" as="geometry"/></mxCell><mxCell id="yh7My2_I7LnDcp3Apb6W-13" value="&lt;&lt;Create&gt;&gt;Adult(age:int, height: double, weight: double) " style="text;strokeColor=none;fillColor=none;align=left;verticalAlign=top;spacingLeft=4;spacingRight=4;overflow=hidden;rotatable=0;points=[[0,0.5],[1,0.5]];portConstraint=eastwest;" parent="yh7My2_I7LnDcp3Apb6W-8" vertex="1"><mxGeometry y="138" width="340" height="26" as="geometry"/></mxCell><mxCell id="yh7My2_I7LnDcp3Apb6W-14" value="Household" style="swimlane;fontStyle=1;align=center;verticalAlign=top;childLayout=stackLayout;horizontal=1;startSize=26;horizontalStack=0;resizeParent=1;resizeParentMax=0;resizeLast=0;collapsible=1;marginBottom=0;" parent="yh7My2_I7LnDcp3Apb6W-1" vertex="1"><mxGeometry x="-440" y="280" width="230" height="216" as="geometry"/></mxCell><mxCell id="yh7My2_I7LnDcp3Apb6W-15" value="-adults: ArrayList &lt;Adults&gt;" style="text;strokeColor=none;fillColor=none;align=left;verticalAlign=top;spacingLeft=4;spacingRight=4;overflow=hidden;rotatable=0;points=[[0,0.5],[1,0.5]];portConstraint=eastwest;" parent="yh7My2_I7LnDcp3Apb6W-14" vertex="1"><mxGeometry y="26" width="230" height="26" as="geometry"/></mxCell><mxCell id="yh7My2_I7LnDcp3Apb6W-19" value="-child: ArrayList &lt;Child&gt;" style="text;strokeColor=none;fillColor=none;align=left;verticalAlign=top;spacingLeft=4;spacingRight=4;overflow=hidden;rotatable=0;points=[[0,0.5],[1,0.5]];portConstraint=eastwest;" parent="yh7My2_I7LnDcp3Apb6W-14" vertex="1"><mxGeometry y="52" width="230" height="26" as="geometry"/></mxCell><mxCell id="yh7My2_I7LnDcp3Apb6W-18" value="-pets: ArrayList &lt;Pet&gt;" style="text;strokeColor=none;fillColor=none;align=left;verticalAlign=top;spacingLeft=4;spacingRight=4;overflow=hidden;rotatable=0;points=[[0,0.5],[1,0.5]];portConstraint=eastwest;" parent="yh7My2_I7LnDcp3Apb6W-14" vertex="1"><mxGeometry y="78" width="230" height="26" as="geometry"/></mxCell><mxCell id="yh7My2_I7LnDcp3Apb6W-16" value="" style="line;strokeWidth=1;fillColor=none;align=left;verticalAlign=middle;spacingTop=-1;spacingLeft=3;spacingRight=3;rotatable=0;labelPosition=right;points=[];portConstraint=eastwest;" parent="yh7My2_I7LnDcp3Apb6W-14" vertex="1"><mxGeometry y="104" width="230" height="8" as="geometry"/></mxCell><mxCell id="yh7My2_I7LnDcp3Apb6W-17" value="+ getAllAdults() : ArrayList&lt;Adult&gt;" style="text;strokeColor=none;fillColor=none;align=left;verticalAlign=top;spacingLeft=4;spacingRight=4;overflow=hidden;rotatable=0;points=[[0,0.5],[1,0.5]];portConstraint=eastwest;" parent="yh7My2_I7LnDcp3Apb6W-14" vertex="1"><mxGeometry y="112" width="230" height="26" as="geometry"/></mxCell><mxCell id="yh7My2_I7LnDcp3Apb6W-23" value="+ getAllChildren() : ArrayList&lt;Child&gt;" style="text;strokeColor=none;fillColor=none;align=left;verticalAlign=top;spacingLeft=4;spacingRight=4;overflow=hidden;rotatable=0;points=[[0,0.5],[1,0.5]];portConstraint=eastwest;" parent="yh7My2_I7LnDcp3Apb6W-14" vertex="1"><mxGeometry y="138" width="230" height="26" as="geometry"/></mxCell><mxCell id="yh7My2_I7LnDcp3Apb6W-24" value="+ getAllPets() : ArrayList&lt;Pet&gt;" style="text;strokeColor=none;fillColor=none;align=left;verticalAlign=top;spacingLeft=4;spacingRight=4;overflow=hidden;rotatable=0;points=[[0,0.5],[1,0.5]];portConstraint=eastwest;" parent="yh7My2_I7LnDcp3Apb6W-14" vertex="1"><mxGeometry y="164" width="230" height="26" as="geometry"/></mxCell><mxCell id="yh7My2_I7LnDcp3Apb6W-20" value="+getAllMembers() : ArrayList&lt;Person&gt;" style="text;strokeColor=none;fillColor=none;align=left;verticalAlign=top;spacingLeft=4;spacingRight=4;overflow=hidden;rotatable=0;points=[[0,0.5],[1,0.5]];portConstraint=eastwest;" parent="yh7My2_I7LnDcp3Apb6W-14" vertex="1"><mxGeometry y="190" width="230" height="26" as="geometry"/></mxCell><mxCell id="yh7My2_I7LnDcp3Apb6W-35" style="edgeStyle=orthogonalEdgeStyle;rounded=0;orthogonalLoop=1;jettySize=auto;html=1;exitX=0.5;exitY=0;exitDx=0;exitDy=0;endArrow=block;endFill=0;endSize=10;" parent="yh7My2_I7LnDcp3Apb6W-1" source="yh7My2_I7LnDcp3Apb6W-28" target="yh7My2_I7LnDcp3Apb6W-2" edge="1"><mxGeometry relative="1" as="geometry"/></mxCell><mxCell id="yh7My2_I7LnDcp3Apb6W-54" style="edgeStyle=orthogonalEdgeStyle;rounded=0;orthogonalLoop=1;jettySize=auto;html=1;exitX=0.25;exitY=0;exitDx=0;exitDy=0;startArrow=classic;startFill=1;endArrow=none;endFill=0;endSize=10;jumpStyle=arc;jumpSize=17;" parent="yh7My2_I7LnDcp3Apb6W-1" source="yh7My2_I7LnDcp3Apb6W-28" target="yh7My2_I7LnDcp3Apb6W-14" edge="1"><mxGeometry relative="1" as="geometry"/></mxCell><mxCell id="yh7My2_I7LnDcp3Apb6W-28" value="Child" style="swimlane;fontStyle=1;align=center;verticalAlign=top;childLayout=stackLayout;horizontal=1;startSize=26;horizontalStack=0;resizeParent=1;resizeParentMax=0;resizeLast=0;collapsible=1;marginBottom=0;" parent="yh7My2_I7LnDcp3Apb6W-1" vertex="1"><mxGeometry x="414" y="640" width="340" height="138" as="geometry"/></mxCell><mxCell id="yh7My2_I7LnDcp3Apb6W-29" value="- guardian: ArrayList &lt;Adult&gt;" style="text;strokeColor=none;fillColor=none;align=left;verticalAlign=top;spacingLeft=4;spacingRight=4;overflow=hidden;rotatable=0;points=[[0,0.5],[1,0.5]];portConstraint=eastwest;" parent="yh7My2_I7LnDcp3Apb6W-28" vertex="1"><mxGeometry y="26" width="340" height="26" as="geometry"/></mxCell><mxCell id="yh7My2_I7LnDcp3Apb6W-30" value="- school : String" style="text;strokeColor=none;fillColor=none;align=left;verticalAlign=top;spacingLeft=4;spacingRight=4;overflow=hidden;rotatable=0;points=[[0,0.5],[1,0.5]];portConstraint=eastwest;" parent="yh7My2_I7LnDcp3Apb6W-28" vertex="1"><mxGeometry y="52" width="340" height="26" as="geometry"/></mxCell><mxCell id="yh7My2_I7LnDcp3Apb6W-32" value="" style="line;strokeWidth=1;fillColor=none;align=left;verticalAlign=middle;spacingTop=-1;spacingLeft=3;spacingRight=3;rotatable=0;labelPosition=right;points=[];portConstraint=eastwest;" parent="yh7My2_I7LnDcp3Apb6W-28" vertex="1"><mxGeometry y="78" width="340" height="8" as="geometry"/></mxCell><mxCell id="yh7My2_I7LnDcp3Apb6W-37" value="&lt;&lt;Create&gt;&gt;Child(firstName: String, surname: String) " style="text;strokeColor=none;fillColor=none;align=left;verticalAlign=top;spacingLeft=4;spacingRight=4;overflow=hidden;rotatable=0;points=[[0,0.5],[1,0.5]];portConstraint=eastwest;" parent="yh7My2_I7LnDcp3Apb6W-28" vertex="1"><mxGeometry y="86" width="340" height="26" as="geometry"/></mxCell><mxCell id="yh7My2_I7LnDcp3Apb6W-38" value="&lt;&lt;Create&gt;&gt;Child(firstName: String, surname: String, age:int, height: double, weight: double) " style="text;strokeColor=none;fillColor=none;align=left;verticalAlign=top;spacingLeft=4;spacingRight=4;overflow=hidden;rotatable=0;points=[[0,0.5],[1,0.5]];portConstraint=eastwest;" parent="yh7My2_I7LnDcp3Apb6W-28" vertex="1"><mxGeometry y="112" width="340" height="26" as="geometry"/></mxCell><mxCell id="yh7My2_I7LnDcp3Apb6W-36" style="edgeStyle=orthogonalEdgeStyle;rounded=0;orthogonalLoop=1;jettySize=auto;html=1;exitX=1;exitY=0.5;exitDx=0;exitDy=0;entryX=0;entryY=0.5;entryDx=0;entryDy=0;endArrow=open;endFill=0;endSize=10;startArrow=open;startFill=0;" parent="yh7My2_I7LnDcp3Apb6W-1" source="yh7My2_I7LnDcp3Apb6W-10" target="yh7My2_I7LnDcp3Apb6W-30" edge="1"><mxGeometry relative="1" as="geometry"/></mxCell><mxCell id="yh7My2_I7LnDcp3Apb6W-40" value="*" style="text;html=1;strokeColor=none;fillColor=none;align=center;verticalAlign=middle;whiteSpace=wrap;rounded=0;" parent="yh7My2_I7LnDcp3Apb6W-1" vertex="1"><mxGeometry x="200" y="680" width="40" height="20" as="geometry"/></mxCell><mxCell id="yh7My2_I7LnDcp3Apb6W-41" value="*" style="text;html=1;strokeColor=none;fillColor=none;align=center;verticalAlign=middle;whiteSpace=wrap;rounded=0;" parent="yh7My2_I7LnDcp3Apb6W-1" vertex="1"><mxGeometry x="370" y="712" width="40" height="20" as="geometry"/></mxCell><mxCell id="yh7My2_I7LnDcp3Apb6W-42" value="responsible for" style="text;html=1;strokeColor=none;fillColor=none;align=center;verticalAlign=middle;whiteSpace=wrap;rounded=0;" parent="yh7My2_I7LnDcp3Apb6W-1" vertex="1"><mxGeometry x="360" y="680" width="40" height="20" as="geometry"/></mxCell><mxCell id="yh7My2_I7LnDcp3Apb6W-43" value="Depends on" style="text;html=1;strokeColor=none;fillColor=none;align=center;verticalAlign=middle;whiteSpace=wrap;rounded=0;" parent="yh7My2_I7LnDcp3Apb6W-1" vertex="1"><mxGeometry x="220" y="720" width="40" height="20" as="geometry"/></mxCell><mxCell id="yh7My2_I7LnDcp3Apb6W-44" value="Pet" style="swimlane;fontStyle=1;align=center;verticalAlign=top;childLayout=stackLayout;horizontal=1;startSize=26;horizontalStack=0;resizeParent=1;resizeParentMax=0;resizeLast=0;collapsible=1;marginBottom=0;" parent="yh7My2_I7LnDcp3Apb6W-1" vertex="1"><mxGeometry x="-140" y="930" width="410" height="190" as="geometry"/></mxCell><mxCell id="yh7My2_I7LnDcp3Apb6W-45" value="-name : String" style="text;strokeColor=none;fillColor=none;align=left;verticalAlign=top;spacingLeft=4;spacingRight=4;overflow=hidden;rotatable=0;points=[[0,0.5],[1,0.5]];portConstraint=eastwest;" parent="yh7My2_I7LnDcp3Apb6W-44" vertex="1"><mxGeometry y="26" width="410" height="26" as="geometry"/></mxCell><mxCell id="yh7My2_I7LnDcp3Apb6W-46" value="-breed: String" style="text;strokeColor=none;fillColor=none;align=left;verticalAlign=top;spacingLeft=4;spacingRight=4;overflow=hidden;rotatable=0;points=[[0,0.5],[1,0.5]];portConstraint=eastwest;" parent="yh7My2_I7LnDcp3Apb6W-44" vertex="1"><mxGeometry y="52" width="410" height="26" as="geometry"/></mxCell><mxCell id="yh7My2_I7LnDcp3Apb6W-50" value="- age: int" style="text;strokeColor=none;fillColor=none;align=left;verticalAlign=top;spacingLeft=4;spacingRight=4;overflow=hidden;rotatable=0;points=[[0,0.5],[1,0.5]];portConstraint=eastwest;" parent="yh7My2_I7LnDcp3Apb6W-44" vertex="1"><mxGeometry y="78" width="410" height="26" as="geometry"/></mxCell><mxCell id="yh7My2_I7LnDcp3Apb6W-51" value="- type: String" style="text;strokeColor=none;fillColor=none;align=left;verticalAlign=top;spacingLeft=4;spacingRight=4;overflow=hidden;rotatable=0;points=[[0,0.5],[1,0.5]];portConstraint=eastwest;" parent="yh7My2_I7LnDcp3Apb6W-44" vertex="1"><mxGeometry y="104" width="410" height="26" as="geometry"/></mxCell><mxCell id="yh7My2_I7LnDcp3Apb6W-47" value="" style="line;strokeWidth=1;fillColor=none;align=left;verticalAlign=middle;spacingTop=-1;spacingLeft=3;spacingRight=3;rotatable=0;labelPosition=right;points=[];portConstraint=eastwest;" parent="yh7My2_I7LnDcp3Apb6W-44" vertex="1"><mxGeometry y="130" width="410" height="8" as="geometry"/></mxCell><mxCell id="yh7My2_I7LnDcp3Apb6W-48" value="&lt;&lt;Create&gt;&gt;Pet(name: String, type: String) " style="text;strokeColor=none;fillColor=none;align=left;verticalAlign=top;spacingLeft=4;spacingRight=4;overflow=hidden;rotatable=0;points=[[0,0.5],[1,0.5]];portConstraint=eastwest;" parent="yh7My2_I7LnDcp3Apb6W-44" vertex="1"><mxGeometry y="138" width="410" height="26" as="geometry"/></mxCell><mxCell id="yh7My2_I7LnDcp3Apb6W-49" value="&lt;&lt;Create&gt;&gt;Pet(name: String, type: String, age:int, breed: String) " style="text;strokeColor=none;fillColor=none;align=left;verticalAlign=top;spacingLeft=4;spacingRight=4;overflow=hidden;rotatable=0;points=[[0,0.5],[1,0.5]];portConstraint=eastwest;" parent="yh7My2_I7LnDcp3Apb6W-44" vertex="1"><mxGeometry y="164" width="410" height="26" as="geometry"/></mxCell><mxCell id="yh7My2_I7LnDcp3Apb6W-55" value="1" style="text;html=1;strokeColor=none;fillColor=none;align=center;verticalAlign=middle;whiteSpace=wrap;rounded=0;" parent="yh7My2_I7LnDcp3Apb6W-1" vertex="1"><mxGeometry x="-360" y="496" width="40" height="20" as="geometry"/></mxCell><mxCell id="yh7My2_I7LnDcp3Apb6W-56" value="belongs to" style="text;html=1;strokeColor=none;fillColor=none;align=center;verticalAlign=middle;whiteSpace=wrap;rounded=0;" parent="yh7My2_I7LnDcp3Apb6W-1" vertex="1"><mxGeometry x="-320" y="500" width="40" height="20" as="geometry"/></mxCell><mxCell id="yh7My2_I7LnDcp3Apb6W-58" value="*" style="text;html=1;strokeColor=none;fillColor=none;align=center;verticalAlign=middle;whiteSpace=wrap;rounded=0;" parent="yh7My2_I7LnDcp3Apb6W-1" vertex="1"><mxGeometry x="-90" y="620" width="40" height="20" as="geometry"/></mxCell><mxCell id="yh7My2_I7LnDcp3Apb6W-59" value="*" style="text;html=1;strokeColor=none;fillColor=none;align=center;verticalAlign=middle;whiteSpace=wrap;rounded=0;" parent="yh7My2_I7LnDcp3Apb6W-1" vertex="1"><mxGeometry x="460" y="620" width="40" height="20" as="geometry"/></mxCell><mxCell id="yh7My2_I7LnDcp3Apb6W-60" style="edgeStyle=orthogonalEdgeStyle;rounded=0;jumpStyle=arc;jumpSize=17;orthogonalLoop=1;jettySize=auto;html=1;exitX=0;exitY=0.5;exitDx=0;exitDy=0;startArrow=classic;startFill=1;endArrow=none;endFill=0;endSize=10;" parent="yh7My2_I7LnDcp3Apb6W-1" source="yh7My2_I7LnDcp3Apb6W-45" target="yh7My2_I7LnDcp3Apb6W-14" edge="1"><mxGeometry relative="1" as="geometry"/></mxCell><mxCell id="yh7My2_I7LnDcp3Apb6W-61" value="*" style="text;html=1;strokeColor=none;fillColor=none;align=center;verticalAlign=middle;whiteSpace=wrap;rounded=0;" parent="yh7My2_I7LnDcp3Apb6W-1" vertex="1"><mxGeometry x="-180" y="940" width="40" height="20" as="geometry"/></mxCell></root></mxGraphModel></diagram><diagram id="Ngdy579hywC9_5MtE7ec" name="House"><mxGraphModel dx="1598" dy="699" grid="1" gridSize="10" guides="1" tooltips="1" connect="1" arrows="1" fold="1" page="1" pageScale="1" pageWidth="827" pageHeight="1169" math="0" shadow="0"><root><mxCell id="-Z46PUsQynjIjJNABkxc-0"/><mxCell id="-Z46PUsQynjIjJNABkxc-1" parent="-Z46PUsQynjIjJNABkxc-0"/><mxCell id="-Z46PUsQynjIjJNABkxc-2" style="rounded=0;orthogonalLoop=1;jettySize=auto;elbow=vertical;html=1;exitX=0.5;exitY=0;exitDx=0;exitDy=0;endArrow=block;endFill=0;endSize=6;edgeStyle=orthogonalEdgeStyle;" parent="-Z46PUsQynjIjJNABkxc-1" source="-Z46PUsQynjIjJNABkxc-3" target="-Z46PUsQynjIjJNABkxc-22" edge="1"><mxGeometry relative="1" as="geometry"><Array as="points"><mxPoint x="-40" y="680"/><mxPoint x="310" y="680"/></Array></mxGeometry></mxCell><mxCell id="-Z46PUsQynjIjJNABkxc-3" value="Lounge" style="swimlane;fontStyle=1;align=center;verticalAlign=top;childLayout=stackLayout;horizontal=1;startSize=26;horizontalStack=0;resizeParent=1;resizeParentMax=0;resizeLast=0;collapsible=1;marginBottom=0;" parent="-Z46PUsQynjIjJNABkxc-1" vertex="1"><mxGeometry x="-120" y="750" width="160" height="128" as="geometry"/></mxCell><mxCell id="-Z46PUsQynjIjJNABkxc-4" value="-devices : String[]&#10;-seats : int" style="text;strokeColor=none;fillColor=none;align=left;verticalAlign=top;spacingLeft=4;spacingRight=4;overflow=hidden;rotatable=0;points=[[0,0.5],[1,0.5]];portConstraint=eastwest;" parent="-Z46PUsQynjIjJNABkxc-3" vertex="1"><mxGeometry y="26" width="160" height="44" as="geometry"/></mxCell><mxCell id="-Z46PUsQynjIjJNABkxc-5" value="" style="line;strokeWidth=1;fillColor=none;align=left;verticalAlign=middle;spacingTop=-1;spacingLeft=3;spacingRight=3;rotatable=0;labelPosition=right;points=[];portConstraint=eastwest;" parent="-Z46PUsQynjIjJNABkxc-3" vertex="1"><mxGeometry y="70" width="160" height="8" as="geometry"/></mxCell><mxCell id="-Z46PUsQynjIjJNABkxc-6" value="+addDevice(String new)&#10;+updateDevices(String new)&#10;+seatingAvailable() : int" style="text;strokeColor=none;fillColor=none;align=left;verticalAlign=top;spacingLeft=4;spacingRight=4;overflow=hidden;rotatable=0;points=[[0,0.5],[1,0.5]];portConstraint=eastwest;" parent="-Z46PUsQynjIjJNABkxc-3" vertex="1"><mxGeometry y="78" width="160" height="50" as="geometry"/></mxCell><mxCell id="-Z46PUsQynjIjJNABkxc-7" style="edgeStyle=orthogonalEdgeStyle;rounded=0;orthogonalLoop=1;jettySize=auto;html=1;exitX=0.5;exitY=0;exitDx=0;exitDy=0;endArrow=block;endFill=0;" parent="-Z46PUsQynjIjJNABkxc-1" source="-Z46PUsQynjIjJNABkxc-8" target="-Z46PUsQynjIjJNABkxc-22" edge="1"><mxGeometry relative="1" as="geometry"/></mxCell><mxCell id="-Z46PUsQynjIjJNABkxc-8" value="Bedroom" style="swimlane;fontStyle=1;align=center;verticalAlign=top;childLayout=stackLayout;horizontal=1;startSize=26;horizontalStack=0;resizeParent=1;resizeParentMax=0;resizeLast=0;collapsible=1;marginBottom=0;" parent="-Z46PUsQynjIjJNABkxc-1" vertex="1"><mxGeometry x="70" y="750" width="160" height="130" as="geometry"/></mxCell><mxCell id="-Z46PUsQynjIjJNABkxc-9" value="-whose: String&#10;-numberOfBeds : int" style="text;strokeColor=none;fillColor=none;align=left;verticalAlign=top;spacingLeft=4;spacingRight=4;overflow=hidden;rotatable=0;points=[[0,0.5],[1,0.5]];portConstraint=eastwest;" parent="-Z46PUsQynjIjJNABkxc-8" vertex="1"><mxGeometry y="26" width="160" height="44" as="geometry"/></mxCell><mxCell id="-Z46PUsQynjIjJNABkxc-10" value="" style="line;strokeWidth=1;fillColor=none;align=left;verticalAlign=middle;spacingTop=-1;spacingLeft=3;spacingRight=3;rotatable=0;labelPosition=right;points=[];portConstraint=eastwest;" parent="-Z46PUsQynjIjJNABkxc-8" vertex="1"><mxGeometry y="70" width="160" height="8" as="geometry"/></mxCell><mxCell id="-Z46PUsQynjIjJNABkxc-11" value="+getOwner() : String&#10;+getMaxPeople(): int" style="text;strokeColor=none;fillColor=none;align=left;verticalAlign=top;spacingLeft=4;spacingRight=4;overflow=hidden;rotatable=0;points=[[0,0.5],[1,0.5]];portConstraint=eastwest;" parent="-Z46PUsQynjIjJNABkxc-8" vertex="1"><mxGeometry y="78" width="160" height="52" as="geometry"/></mxCell><mxCell id="-Z46PUsQynjIjJNABkxc-12" style="edgeStyle=orthogonalEdgeStyle;rounded=0;orthogonalLoop=1;jettySize=auto;html=1;exitX=0.5;exitY=0;exitDx=0;exitDy=0;endArrow=block;endFill=0;endSize=6;" parent="-Z46PUsQynjIjJNABkxc-1" source="-Z46PUsQynjIjJNABkxc-13" target="-Z46PUsQynjIjJNABkxc-22" edge="1"><mxGeometry relative="1" as="geometry"/></mxCell><mxCell id="-Z46PUsQynjIjJNABkxc-13" value="Kitchen" style="swimlane;fontStyle=1;align=center;verticalAlign=top;childLayout=stackLayout;horizontal=1;startSize=26;horizontalStack=0;resizeParent=1;resizeParentMax=0;resizeLast=0;collapsible=1;marginBottom=0;" parent="-Z46PUsQynjIjJNABkxc-1" vertex="1"><mxGeometry x="260" y="750" width="160" height="86" as="geometry"/></mxCell><mxCell id="-Z46PUsQynjIjJNABkxc-14" value="-cooker() : String" style="text;strokeColor=none;fillColor=none;align=left;verticalAlign=top;spacingLeft=4;spacingRight=4;overflow=hidden;rotatable=0;points=[[0,0.5],[1,0.5]];portConstraint=eastwest;" parent="-Z46PUsQynjIjJNABkxc-13" vertex="1"><mxGeometry y="26" width="160" height="26" as="geometry"/></mxCell><mxCell id="-Z46PUsQynjIjJNABkxc-15" value="" style="line;strokeWidth=1;fillColor=none;align=left;verticalAlign=middle;spacingTop=-1;spacingLeft=3;spacingRight=3;rotatable=0;labelPosition=right;points=[];portConstraint=eastwest;" parent="-Z46PUsQynjIjJNABkxc-13" vertex="1"><mxGeometry y="52" width="160" height="8" as="geometry"/></mxCell><mxCell id="-Z46PUsQynjIjJNABkxc-16" value="+getCookerType() : String" style="text;strokeColor=none;fillColor=none;align=left;verticalAlign=top;spacingLeft=4;spacingRight=4;overflow=hidden;rotatable=0;points=[[0,0.5],[1,0.5]];portConstraint=eastwest;" parent="-Z46PUsQynjIjJNABkxc-13" vertex="1"><mxGeometry y="60" width="160" height="26" as="geometry"/></mxCell><mxCell id="-Z46PUsQynjIjJNABkxc-17" style="edgeStyle=orthogonalEdgeStyle;rounded=0;orthogonalLoop=1;jettySize=auto;html=1;exitX=0.5;exitY=0;exitDx=0;exitDy=0;endArrow=block;endFill=0;endSize=6;" parent="-Z46PUsQynjIjJNABkxc-1" source="-Z46PUsQynjIjJNABkxc-18" target="-Z46PUsQynjIjJNABkxc-22" edge="1"><mxGeometry relative="1" as="geometry"><Array as="points"><mxPoint x="540" y="680"/><mxPoint x="310" y="680"/></Array></mxGeometry></mxCell><mxCell id="-Z46PUsQynjIjJNABkxc-18" value="Bathroom" style="swimlane;fontStyle=1;align=center;verticalAlign=top;childLayout=stackLayout;horizontal=1;startSize=26;horizontalStack=0;resizeParent=1;resizeParentMax=0;resizeLast=0;collapsible=1;marginBottom=0;" parent="-Z46PUsQynjIjJNABkxc-1" vertex="1"><mxGeometry x="460" y="760" width="160" height="130" as="geometry"/></mxCell><mxCell id="-Z46PUsQynjIjJNABkxc-19" value="-shower : boolean&#10;-bath : boolean&#10;" style="text;strokeColor=none;fillColor=none;align=left;verticalAlign=top;spacingLeft=4;spacingRight=4;overflow=hidden;rotatable=0;points=[[0,0.5],[1,0.5]];portConstraint=eastwest;" parent="-Z46PUsQynjIjJNABkxc-18" vertex="1"><mxGeometry y="26" width="160" height="44" as="geometry"/></mxCell><mxCell id="-Z46PUsQynjIjJNABkxc-20" value="" style="line;strokeWidth=1;fillColor=none;align=left;verticalAlign=middle;spacingTop=-1;spacingLeft=3;spacingRight=3;rotatable=0;labelPosition=right;points=[];portConstraint=eastwest;" parent="-Z46PUsQynjIjJNABkxc-18" vertex="1"><mxGeometry y="70" width="160" height="8" as="geometry"/></mxCell><mxCell id="-Z46PUsQynjIjJNABkxc-21" value="+getFacilities(): String[]" style="text;strokeColor=none;fillColor=none;align=left;verticalAlign=top;spacingLeft=4;spacingRight=4;overflow=hidden;rotatable=0;points=[[0,0.5],[1,0.5]];portConstraint=eastwest;" parent="-Z46PUsQynjIjJNABkxc-18" vertex="1"><mxGeometry y="78" width="160" height="52" as="geometry"/></mxCell><mxCell id="-Z46PUsQynjIjJNABkxc-22" value="Room" style="swimlane;fontStyle=1;align=center;verticalAlign=top;childLayout=stackLayout;horizontal=1;startSize=26;horizontalStack=0;resizeParent=1;resizeParentMax=0;resizeLast=0;collapsible=1;marginBottom=0;" parent="-Z46PUsQynjIjJNABkxc-1" vertex="1"><mxGeometry x="230" y="430" width="160" height="180" as="geometry"/></mxCell><mxCell id="-Z46PUsQynjIjJNABkxc-23" value="-name: String&#10;-length: float&#10;-widt: float&#10;-walls : int&#10;-doors : int&#10;-windows : int" style="text;strokeColor=none;fillColor=none;align=left;verticalAlign=top;spacingLeft=4;spacingRight=4;overflow=hidden;rotatable=0;points=[[0,0.5],[1,0.5]];portConstraint=eastwest;" parent="-Z46PUsQynjIjJNABkxc-22" vertex="1"><mxGeometry y="26" width="160" height="104" as="geometry"/></mxCell><mxCell id="-Z46PUsQynjIjJNABkxc-24" value="" style="line;strokeWidth=1;fillColor=none;align=left;verticalAlign=middle;spacingTop=-1;spacingLeft=3;spacingRight=3;rotatable=0;labelPosition=right;points=[];portConstraint=eastwest;" parent="-Z46PUsQynjIjJNABkxc-22" vertex="1"><mxGeometry y="130" width="160" height="8" as="geometry"/></mxCell><mxCell id="-Z46PUsQynjIjJNABkxc-25" value="+getArea() : float&#10;+toString(): String" style="text;strokeColor=none;fillColor=none;align=left;verticalAlign=top;spacingLeft=4;spacingRight=4;overflow=hidden;rotatable=0;points=[[0,0.5],[1,0.5]];portConstraint=eastwest;" parent="-Z46PUsQynjIjJNABkxc-22" vertex="1"><mxGeometry y="138" width="160" height="42" as="geometry"/></mxCell><mxCell id="-Z46PUsQynjIjJNABkxc-26" value="1" style="endArrow=none;html=1;endSize=12;startArrow=diamondThin;startSize=14;startFill=1;edgeStyle=orthogonalEdgeStyle;align=left;verticalAlign=bottom;endFill=0;" parent="-Z46PUsQynjIjJNABkxc-1" source="-Z46PUsQynjIjJNABkxc-27" target="-Z46PUsQynjIjJNABkxc-22" edge="1"><mxGeometry x="-0.8072" y="10" relative="1" as="geometry"><mxPoint x="280" y="310" as="sourcePoint"/><mxPoint x="270" y="310" as="targetPoint"/><Array as="points"/><mxPoint as="offset"/></mxGeometry></mxCell><mxCell id="-Z46PUsQynjIjJNABkxc-27" value="House" style="swimlane;fontStyle=1;align=center;verticalAlign=top;childLayout=stackLayout;horizontal=1;startSize=26;horizontalStack=0;resizeParent=1;resizeParentMax=0;resizeLast=0;collapsible=1;marginBottom=0;" parent="-Z46PUsQynjIjJNABkxc-1" vertex="1"><mxGeometry x="230" y="110" width="160" height="210" as="geometry"/></mxCell><mxCell id="-Z46PUsQynjIjJNABkxc-28" value="-address : Address&#10;-owner : Owner&#10;-value: float&#10;-floors : int&#10;-length : float&#10;-width : float&#10;-rooms : Room[]" style="text;strokeColor=none;fillColor=none;align=left;verticalAlign=top;spacingLeft=4;spacingRight=4;overflow=hidden;rotatable=0;points=[[0,0.5],[1,0.5]];portConstraint=eastwest;" parent="-Z46PUsQynjIjJNABkxc-27" vertex="1"><mxGeometry y="26" width="160" height="104" as="geometry"/></mxCell><mxCell id="-Z46PUsQynjIjJNABkxc-29" value="" style="line;strokeWidth=1;fillColor=none;align=left;verticalAlign=middle;spacingTop=-1;spacingLeft=3;spacingRight=3;rotatable=0;labelPosition=right;points=[];portConstraint=eastwest;" parent="-Z46PUsQynjIjJNABkxc-27" vertex="1"><mxGeometry y="130" width="160" height="8" as="geometry"/></mxCell><mxCell id="-Z46PUsQynjIjJNABkxc-30" value="+getArea() : float&#10;+addRoom(Room)&#10;+addGardenGarden)&#10;+toString(): String" style="text;strokeColor=none;fillColor=none;align=left;verticalAlign=top;spacingLeft=4;spacingRight=4;overflow=hidden;rotatable=0;points=[[0,0.5],[1,0.5]];portConstraint=eastwest;" parent="-Z46PUsQynjIjJNABkxc-27" vertex="1"><mxGeometry y="138" width="160" height="72" as="geometry"/></mxCell><mxCell id="-Z46PUsQynjIjJNABkxc-31" value="1..*" style="text;align=center;fontStyle=1;verticalAlign=middle;spacingLeft=3;spacingRight=3;strokeColor=none;rotatable=0;points=[[0,0.5],[1,0.5]];portConstraint=eastwest;" parent="-Z46PUsQynjIjJNABkxc-1" vertex="1"><mxGeometry x="290" y="404" width="80" height="26" as="geometry"/></mxCell><mxCell id="-Z46PUsQynjIjJNABkxc-32" value="" style="endArrow=block;startArrow=block;endFill=1;startFill=1;html=1;" parent="-Z46PUsQynjIjJNABkxc-1" source="-Z46PUsQynjIjJNABkxc-50" target="-Z46PUsQynjIjJNABkxc-27" edge="1"><mxGeometry width="160" relative="1" as="geometry"><mxPoint x="90" y="350" as="sourcePoint"/><mxPoint x="250" y="350" as="targetPoint"/></mxGeometry></mxCell><mxCell id="-Z46PUsQynjIjJNABkxc-33" value="1" style="text;align=center;fontStyle=1;verticalAlign=middle;spacingLeft=3;spacingRight=3;strokeColor=none;rotatable=0;points=[[0,0.5],[1,0.5]];portConstraint=eastwest;" parent="-Z46PUsQynjIjJNABkxc-1" vertex="1"><mxGeometry x="20" y="160" width="80" height="26" as="geometry"/></mxCell><mxCell id="-Z46PUsQynjIjJNABkxc-34" value="1" style="text;align=center;fontStyle=1;verticalAlign=middle;spacingLeft=3;spacingRight=3;strokeColor=none;rotatable=0;points=[[0,0.5],[1,0.5]];portConstraint=eastwest;" parent="-Z46PUsQynjIjJNABkxc-1" vertex="1"><mxGeometry x="170" y="160" width="80" height="26" as="geometry"/></mxCell><mxCell id="-Z46PUsQynjIjJNABkxc-35" style="edgeStyle=none;rounded=0;orthogonalLoop=1;jettySize=auto;html=1;exitX=0.5;exitY=0;exitDx=0;exitDy=0;endArrow=block;endFill=0;startSize=16;" parent="-Z46PUsQynjIjJNABkxc-1" source="-Z46PUsQynjIjJNABkxc-40" target="-Z46PUsQynjIjJNABkxc-8" edge="1"><mxGeometry relative="1" as="geometry"/></mxCell><mxCell id="-Z46PUsQynjIjJNABkxc-36" value="Garden" style="swimlane;fontStyle=1;align=center;verticalAlign=top;childLayout=stackLayout;horizontal=1;startSize=26;horizontalStack=0;resizeParent=1;resizeParentMax=0;resizeLast=0;collapsible=1;marginBottom=0;" parent="-Z46PUsQynjIjJNABkxc-1" vertex="1"><mxGeometry x="625" y="264" width="160" height="160" as="geometry"/></mxCell><mxCell id="-Z46PUsQynjIjJNABkxc-37" value="-location: String&#10;-length : float&#10;-width : float&#10;-pool : boolean&#10;- greenHouse : boolean" style="text;strokeColor=none;fillColor=none;align=left;verticalAlign=top;spacingLeft=4;spacingRight=4;overflow=hidden;rotatable=0;points=[[0,0.5],[1,0.5]];portConstraint=eastwest;" parent="-Z46PUsQynjIjJNABkxc-36" vertex="1"><mxGeometry y="26" width="160" height="84" as="geometry"/></mxCell><mxCell id="-Z46PUsQynjIjJNABkxc-38" value="" style="line;strokeWidth=1;fillColor=none;align=left;verticalAlign=middle;spacingTop=-1;spacingLeft=3;spacingRight=3;rotatable=0;labelPosition=right;points=[];portConstraint=eastwest;" parent="-Z46PUsQynjIjJNABkxc-36" vertex="1"><mxGeometry y="110" width="160" height="8" as="geometry"/></mxCell><mxCell id="-Z46PUsQynjIjJNABkxc-39" value="+getArea() : float&#10;+toString() : String" style="text;strokeColor=none;fillColor=none;align=left;verticalAlign=top;spacingLeft=4;spacingRight=4;overflow=hidden;rotatable=0;points=[[0,0.5],[1,0.5]];portConstraint=eastwest;" parent="-Z46PUsQynjIjJNABkxc-36" vertex="1"><mxGeometry y="118" width="160" height="42" as="geometry"/></mxCell><mxCell id="-Z46PUsQynjIjJNABkxc-40" value="GuestBedroom" style="swimlane;fontStyle=1;align=center;verticalAlign=top;childLayout=stackLayout;horizontal=1;startSize=26;horizontalStack=0;resizeParent=1;resizeParentMax=0;resizeLast=0;collapsible=1;marginBottom=0;" parent="-Z46PUsQynjIjJNABkxc-1" vertex="1"><mxGeometry x="70" y="960" width="160" height="130" as="geometry"/></mxCell><mxCell id="-Z46PUsQynjIjJNABkxc-41" value="-booked: boolean&#10;-visitor : String" style="text;strokeColor=none;fillColor=none;align=left;verticalAlign=top;spacingLeft=4;spacingRight=4;overflow=hidden;rotatable=0;points=[[0,0.5],[1,0.5]];portConstraint=eastwest;" parent="-Z46PUsQynjIjJNABkxc-40" vertex="1"><mxGeometry y="26" width="160" height="44" as="geometry"/></mxCell><mxCell id="-Z46PUsQynjIjJNABkxc-42" value="" style="line;strokeWidth=1;fillColor=none;align=left;verticalAlign=middle;spacingTop=-1;spacingLeft=3;spacingRight=3;rotatable=0;labelPosition=right;points=[];portConstraint=eastwest;" parent="-Z46PUsQynjIjJNABkxc-40" vertex="1"><mxGeometry y="70" width="160" height="8" as="geometry"/></mxCell><mxCell id="-Z46PUsQynjIjJNABkxc-43" value="+getOccupant() : String&#10;+isBooked : boolean" style="text;strokeColor=none;fillColor=none;align=left;verticalAlign=top;spacingLeft=4;spacingRight=4;overflow=hidden;rotatable=0;points=[[0,0.5],[1,0.5]];portConstraint=eastwest;" parent="-Z46PUsQynjIjJNABkxc-40" vertex="1"><mxGeometry y="78" width="160" height="52" as="geometry"/></mxCell><mxCell id="-Z46PUsQynjIjJNABkxc-44" value="1" style="endArrow=none;html=1;endSize=12;startArrow=diamondThin;startSize=14;startFill=0;edgeStyle=orthogonalEdgeStyle;align=left;verticalAlign=bottom;rounded=0;endFill=0;" parent="-Z46PUsQynjIjJNABkxc-1" source="-Z46PUsQynjIjJNABkxc-27" target="-Z46PUsQynjIjJNABkxc-36" edge="1"><mxGeometry x="-1" y="3" relative="1" as="geometry"><mxPoint x="250" y="380" as="sourcePoint"/><mxPoint x="410" y="380" as="targetPoint"/></mxGeometry></mxCell><mxCell id="-Z46PUsQynjIjJNABkxc-45" value="0..2" style="text;align=center;fontStyle=1;verticalAlign=middle;spacingLeft=3;spacingRight=3;strokeColor=none;rotatable=0;points=[[0,0.5],[1,0.5]];portConstraint=eastwest;" parent="-Z46PUsQynjIjJNABkxc-1" vertex="1"><mxGeometry x="510" y="310" width="80" height="26" as="geometry"/></mxCell><mxCell id="-Z46PUsQynjIjJNABkxc-46" value="" style="endArrow=block;startArrow=block;endFill=1;startFill=1;html=1;" parent="-Z46PUsQynjIjJNABkxc-1" target="-Z46PUsQynjIjJNABkxc-27" edge="1"><mxGeometry width="160" relative="1" as="geometry"><mxPoint x="520" y="117.24137931034511" as="sourcePoint"/><mxPoint x="410" y="130" as="targetPoint"/></mxGeometry></mxCell><mxCell id="-Z46PUsQynjIjJNABkxc-47" value="0..2" style="text;align=center;fontStyle=1;verticalAlign=middle;spacingLeft=3;spacingRight=3;strokeColor=none;rotatable=0;points=[[0,0.5],[1,0.5]];portConstraint=eastwest;" parent="-Z46PUsQynjIjJNABkxc-1" vertex="1"><mxGeometry x="370" y="110" width="80" height="26" as="geometry"/></mxCell><mxCell id="-Z46PUsQynjIjJNABkxc-48" value="1..2" style="text;align=center;fontStyle=1;verticalAlign=middle;spacingLeft=3;spacingRight=3;strokeColor=none;rotatable=0;points=[[0,0.5],[1,0.5]];portConstraint=eastwest;" parent="-Z46PUsQynjIjJNABkxc-1" vertex="1"><mxGeometry x="450" y="102" width="80" height="26" as="geometry"/></mxCell><mxCell id="-Z46PUsQynjIjJNABkxc-49" value="+toString() : String" style="text;html=1;align=center;verticalAlign=middle;resizable=0;points=[];autosize=1;" parent="-Z46PUsQynjIjJNABkxc-1" vertex="1"><mxGeometry x="515" y="130" width="110" height="20" as="geometry"/></mxCell><mxCell id="-Z46PUsQynjIjJNABkxc-50" value="Address" style="swimlane;fontStyle=1;align=center;verticalAlign=top;childLayout=stackLayout;horizontal=1;startSize=26;horizontalStack=0;resizeParent=1;resizeParentMax=0;resizeLast=0;collapsible=1;marginBottom=0;" parent="-Z46PUsQynjIjJNABkxc-1" vertex="1"><mxGeometry x="-190" y="110" width="230" height="170" as="geometry"/></mxCell><mxCell id="-Z46PUsQynjIjJNABkxc-51" value="-number: int&#10;-street: String&#10;-town : String&#10;-postcode : String" style="text;strokeColor=none;fillColor=none;align=left;verticalAlign=top;spacingLeft=4;spacingRight=4;overflow=hidden;rotatable=0;points=[[0,0.5],[1,0.5]];portConstraint=eastwest;" parent="-Z46PUsQynjIjJNABkxc-50" vertex="1"><mxGeometry y="26" width="230" height="74" as="geometry"/></mxCell><mxCell id="-Z46PUsQynjIjJNABkxc-52" value="" style="line;strokeWidth=1;fillColor=none;align=left;verticalAlign=middle;spacingTop=-1;spacingLeft=3;spacingRight=3;rotatable=0;labelPosition=right;points=[];portConstraint=eastwest;" parent="-Z46PUsQynjIjJNABkxc-50" vertex="1"><mxGeometry y="100" width="230" height="8" as="geometry"/></mxCell><mxCell id="-Z46PUsQynjIjJNABkxc-53" value="+toString() : String&#10;+updateAddress(int, String, String, String)" style="text;strokeColor=none;fillColor=none;align=left;verticalAlign=top;spacingLeft=4;spacingRight=4;overflow=hidden;rotatable=0;points=[[0,0.5],[1,0.5]];portConstraint=eastwest;" parent="-Z46PUsQynjIjJNABkxc-50" vertex="1"><mxGeometry y="108" width="230" height="62" as="geometry"/></mxCell><mxCell id="-Z46PUsQynjIjJNABkxc-54" value="Owner" style="swimlane;fontStyle=1;align=center;verticalAlign=top;childLayout=stackLayout;horizontal=1;startSize=26;horizontalStack=0;resizeParent=1;resizeParentMax=0;resizeLast=0;collapsible=1;marginBottom=0;" parent="-Z46PUsQynjIjJNABkxc-1" vertex="1"><mxGeometry x="520" y="10" width="160" height="140" as="geometry"/></mxCell><mxCell id="-Z46PUsQynjIjJNABkxc-55" value="-name: String&#10;-propertiesOwned: int" style="text;strokeColor=none;fillColor=none;align=left;verticalAlign=top;spacingLeft=4;spacingRight=4;overflow=hidden;rotatable=0;points=[[0,0.5],[1,0.5]];portConstraint=eastwest;" parent="-Z46PUsQynjIjJNABkxc-54" vertex="1"><mxGeometry y="26" width="160" height="54" as="geometry"/></mxCell><mxCell id="-Z46PUsQynjIjJNABkxc-56" value="" style="line;strokeWidth=1;fillColor=none;align=left;verticalAlign=middle;spacingTop=-1;spacingLeft=3;spacingRight=3;rotatable=0;labelPosition=right;points=[];portConstraint=eastwest;" parent="-Z46PUsQynjIjJNABkxc-54" vertex="1"><mxGeometry y="80" width="160" height="60" as="geometry"/></mxCell></root></mxGraphModel></diagram></mxfile>